<?xml version="1.0" encoding="UTF-8"?>
<svg version="1.1" xmlns="http://www.w3.org/2000/svg" width="1604" height="561">
<path d="M0 0 C-1.5986728 5.8394635 -4.54037188 10.68592629 -7.5625 15.875 C-13.08056444 25.48144854 -18.33726676 35.19970936 -23.5 45 C-28.85808139 55.16228367 -34.33399771 65.2305364 -40.046875 75.19921875 C-44.70589254 83.37556388 -49.11039009 91.67722193 -53.5 100 C-58.85944301 110.16159881 -64.33396355 120.23047681 -70.046875 130.19921875 C-74.70589396 138.37556638 -79.11034232 146.67724498 -83.5 155 C-88.88390595 165.2074696 -94.38159046 175.3241655 -100.1171875 185.33984375 C-104.56694022 193.14623376 -108.79613197 201.05966425 -113 209 C-117.69279864 217.86383601 -122.45275121 226.67047636 -127.4375 235.375 C-133.04410183 245.16898865 -138.33929119 255.11133016 -143.60324097 265.09173584 C-148.59714167 274.55399478 -153.72648471 283.9154064 -159.046875 293.19921875 C-163.70589682 301.37557139 -168.11024669 309.67729112 -172.5 318 C-177.92380193 328.28207614 -183.45692843 338.47836648 -189.22924805 348.57055664 C-195.70747353 359.92614335 -201.84549363 371.46674196 -208 383 C-212.27785522 381.38882647 -216.31355438 379.38046444 -220.37109375 377.2890625 C-221.08072769 376.92517426 -221.79036163 376.56128601 -222.52149963 376.18637085 C-224.82825802 375.00199532 -227.13301082 373.81378411 -229.4375 372.625 C-230.22987061 372.21717285 -231.02224121 371.8093457 -231.83862305 371.38916016 C-241.79691441 366.26166098 -251.69339038 361.04737639 -261.49194336 355.61962891 C-270.06852912 350.89876449 -278.78404323 346.45608562 -287.5 342 C-297.91272213 336.67643283 -308.26530622 331.28494773 -318.49609375 325.6171875 C-327.07149252 320.89749434 -335.785468 316.4553572 -344.5 312 C-354.91272213 306.67643283 -365.26530622 301.28494773 -375.49609375 295.6171875 C-384.07149252 290.89749434 -392.785468 286.4553572 -401.5 282 C-411.91272213 276.67643283 -422.26530622 271.28494773 -432.49609375 265.6171875 C-441.07149252 260.89749434 -449.785468 256.4553572 -458.5 252 C-468.91272213 246.67643283 -479.26530622 241.28494773 -489.49609375 235.6171875 C-498.07149252 230.89749434 -506.785468 226.4553572 -515.5 222 C-525.90027595 216.68279601 -536.24552231 211.30573322 -546.45874023 205.63476562 C-552.23331577 202.45136689 -558.06936673 199.4046871 -563.94140625 196.40625 C-564.73139008 196.00253174 -565.5213739 195.59881348 -566.33529663 195.18286133 C-570.29788648 193.15992389 -574.26444215 191.14524588 -578.23632812 189.140625 C-579.70059159 188.39597245 -581.16478732 187.6511867 -582.62890625 186.90625 C-583.29878067 186.57129517 -583.96865509 186.23634033 -584.65882874 185.89123535 C-588.47161154 183.94425132 -591.75573165 181.79334107 -595 179 C-588.28072206 178.04149335 -581.60406832 177.6758113 -574.82566833 177.39294434 C-573.61251782 177.3397093 -572.39936731 177.28647426 -571.14945465 177.23162603 C-567.79891247 177.08524466 -564.44826901 176.94176969 -561.0975498 176.79953456 C-557.47695305 176.64512231 -553.85652151 176.48692334 -550.23606873 176.32917786 C-543.96555219 176.05646827 -537.69493835 175.78609779 -531.42425346 175.51728821 C-522.34163011 175.1279028 -513.25918089 174.7345716 -504.17677165 174.34022707 C-489.41832563 173.69951186 -474.65976643 173.0614448 -459.90112305 172.42529297 C-459.01837851 172.38724279 -458.13563398 172.34919261 -457.22613961 172.30998939 C-456.34234108 172.27189409 -455.45854255 172.23379879 -454.54796225 172.19454908 C-452.75981904 172.11747264 -450.97167587 172.04039557 -449.18353271 171.96331787 C-447.85423386 171.90601888 -447.85423386 171.90601888 -446.49808049 171.84756234 C-436.66918735 171.42384464 -426.84032587 170.9993949 -417.01147461 170.57470703 C-416.13193276 170.53670422 -415.25239092 170.4987014 -414.34619629 170.45954698 C-399.65000764 169.82450541 -384.9538804 169.18805083 -370.25778538 168.55084658 C-361.20574933 168.15844942 -352.15365454 167.76745811 -343.10147769 167.37832224 C-336.89020942 167.11125081 -330.67899389 166.84297604 -324.4678173 166.57378089 C-320.89134598 166.41882527 -317.31485244 166.26444071 -313.73828888 166.11162758 C-306.46420865 165.80051089 -299.19080296 165.47875405 -291.91822124 165.13420677 C-289.31659107 165.01455978 -286.71485602 164.90975595 -284.11245918 164.80860901 C-282.7735398 164.74541276 -281.4346609 164.68134755 -280.09584045 164.61608887 C-278.51165361 164.54913441 -278.51165361 164.54913441 -276.89546299 164.48082733 C-270.87229624 163.48060623 -266.04794237 159.97157024 -261.0625 156.625 C-259.87258403 155.85948966 -258.68037524 155.09753343 -257.48608398 154.33886719 C-255.60457695 153.14288416 -253.72488278 151.94471916 -251.85194397 150.73535156 C-245.21956249 146.456158 -238.42988822 142.45653461 -231.62399292 138.46136475 C-221.36413759 132.43251695 -211.17706715 126.30253821 -201.08813477 119.99121094 C-192.43825414 114.60334363 -183.6590655 109.43665116 -174.88720703 104.25097656 C-166.70707559 99.41320313 -158.5574295 94.54068613 -150.5 89.5 C-141.85139505 84.09037042 -133.09368533 78.8776903 -124.3125 73.6875 C-114.48537704 67.87899712 -104.70333087 62.01383414 -95 56 C-84.72431374 49.63207063 -74.3557165 43.43745754 -63.94854736 37.28778076 C-54.70125808 31.82115118 -45.50948119 26.27836945 -36.375 20.625 C-28.12038668 15.52010617 -19.84189563 10.46126874 -11.5 5.5 C-10.56720215 4.94135254 -9.6344043 4.38270508 -8.67333984 3.80712891 C-7.8220752 3.30358887 -6.97081055 2.80004883 -6.09375 2.28125 C-5.34802734 1.83845703 -4.60230469 1.39566406 -3.83398438 0.93945312 C-2 0 -2 0 0 0 Z " fill="#F19620" transform="translate(819,63)"/>
<path d="M0 0 C-1.5986728 5.8394635 -4.54037188 10.68592629 -7.5625 15.875 C-13.08056444 25.48144854 -18.33726676 35.19970936 -23.5 45 C-28.85808139 55.16228367 -34.33399771 65.2305364 -40.046875 75.19921875 C-44.70589254 83.37556388 -49.11039009 91.67722193 -53.5 100 C-58.85944301 110.16159881 -64.33396355 120.23047681 -70.046875 130.19921875 C-74.70589396 138.37556638 -79.11034232 146.67724498 -83.5 155 C-88.88390595 165.2074696 -94.38159046 175.3241655 -100.1171875 185.33984375 C-104.92817152 193.77995715 -109.47906784 202.34922212 -114.02398682 210.93423462 C-119.0444208 220.41108149 -124.21214399 229.78755865 -129.5300293 239.10180664 C-134.20524452 247.3058497 -138.64744766 255.62105557 -143 264 C-144.88035026 261.17947461 -145.61887158 259.29848419 -146.515625 256.08984375 C-146.79414307 255.10927002 -147.07266113 254.12869629 -147.35961914 253.1184082 C-147.65344482 252.0687085 -147.94727051 251.01900879 -148.25 249.9375 C-150.36908406 242.50494128 -152.55147261 235.12239831 -155.0625 227.8125 C-157.2496986 221.42689401 -159.18232549 215.00029684 -161 208.5 C-163.49684591 199.57265208 -166.34216319 190.80327632 -169.31835938 182.02636719 C-170.36932802 178.90206929 -171.38100409 175.76798708 -172.375 172.625 C-172.69210937 171.62726563 -173.00921875 170.62953125 -173.3359375 169.6015625 C-174 167 -174 167 -174 163 C-174.70710617 163.02505615 -175.41421234 163.0501123 -176.14274597 163.07592773 C-185.15733683 163.39380197 -194.17225766 163.70124116 -203.1875 164 C-203.90409412 164.0237545 -204.62068825 164.047509 -205.35899734 164.07198334 C-228.24406445 164.82687375 -251.10093426 165.30323709 -274 165 C-270.64134922 162.22070223 -267.2408884 159.81355163 -263.51171875 157.55859375 C-262.42858398 156.90189697 -261.34544922 156.2452002 -260.22949219 155.56860352 C-259.04890507 154.8581078 -257.86823876 154.14774368 -256.6875 153.4375 C-255.4533419 152.69150454 -254.21929475 151.9453255 -252.98535156 151.19897461 C-242.74505483 145.01436467 -232.45316638 138.916771 -222.1578064 132.82443237 C-214.47902429 128.27951485 -206.82759051 123.70778251 -199.29858398 118.91748047 C-192.06534674 114.35044925 -184.67531745 110.04093193 -177.3125 105.6875 C-168.32322571 100.37229925 -159.35351805 95.03975214 -150.5 89.5 C-141.85144642 84.09029134 -133.0936829 78.87768886 -124.3125 73.6875 C-114.48537704 67.87899712 -104.70333087 62.01383414 -95 56 C-84.72431374 49.63207063 -74.3557165 43.43745754 -63.94854736 37.28778076 C-54.70125808 31.82115118 -45.50948119 26.27836945 -36.375 20.625 C-28.12038668 15.52010617 -19.84189563 10.46126874 -11.5 5.5 C-10.56720215 4.94135254 -9.6344043 4.38270508 -8.67333984 3.80712891 C-7.39644287 3.05181885 -7.39644287 3.05181885 -6.09375 2.28125 C-5.34802734 1.83845703 -4.60230469 1.39566406 -3.83398438 0.93945312 C-2 0 -2 0 0 0 Z " fill="#116D9C" transform="translate(819,63)"/>
<path d="M0 0 C-2.44019363 2.48314597 -4.66292664 4.59535794 -7.66015625 6.375 C-8.36132568 6.79644287 -9.06249512 7.21788574 -9.78491211 7.65209961 C-10.53651611 8.09690674 -11.28812012 8.54171387 -12.0625 9 C-13.69086486 9.97920486 -15.3184443 10.95971682 -16.9453125 11.94140625 C-18.20069824 12.69768311 -18.20069824 12.69768311 -19.48144531 13.46923828 C-23.49753544 15.91019263 -27.46874245 18.42054595 -31.4375 20.9375 C-32.62037598 21.68700928 -32.62037598 21.68700928 -33.82714844 22.45166016 C-35.42568181 23.46497547 -37.02398949 24.47864692 -38.62207031 25.49267578 C-40.96225532 26.97607437 -43.30482074 28.45562389 -45.6484375 29.93359375 C-46.41752441 30.41868408 -47.18661133 30.90377441 -47.97900391 31.40356445 C-49.52795365 32.38028763 -51.07710559 33.35669023 -52.62646484 34.33276367 C-57.10301789 37.15691336 -61.56495077 40.00240196 -66.015625 42.8671875 C-67.52515747 43.83615967 -67.52515747 43.83615967 -69.06518555 44.82470703 C-71.03522441 46.09014048 -73.00291307 47.35924164 -74.96801758 48.63232422 C-75.85642334 49.20225098 -76.7448291 49.77217773 -77.66015625 50.359375 C-78.45043213 50.86952148 -79.24070801 51.37966797 -80.05493164 51.90527344 C-82 53 -82 53 -84 53 C-83.76925781 53.59683594 -83.53851563 54.19367188 -83.30078125 54.80859375 C-80.33360237 62.70152412 -77.96065618 70.71631002 -75.63232422 78.81347656 C-75.03591499 80.87580901 -74.42898756 82.93460799 -73.81640625 84.9921875 C-71.91518808 91.38313317 -70.05350666 97.78218377 -68.26953125 104.20703125 C-67.96644043 105.29822266 -67.66334961 106.38941406 -67.35107422 107.51367188 C-66.75991885 109.64827673 -66.17151799 111.78364716 -65.58642578 113.91992188 C-63.88335742 120.07511374 -61.99359952 126.13314279 -59.94360352 132.18139648 C-58.61958322 136.13632904 -57.41992208 140.12224771 -56.25 144.125 C-56.02957031 144.86492187 -55.80914062 145.60484375 -55.58203125 146.3671875 C-54 151.75198952 -54 151.75198952 -54 154 C-58.13327246 152.71312563 -61.88094501 151.16222121 -65.71875 149.1640625 C-66.80349609 148.60106445 -67.88824219 148.03806641 -69.00585938 147.45800781 C-70.15892578 146.85311523 -71.31199219 146.24822266 -72.5 145.625 C-73.72192643 144.98780463 -74.94393279 144.35076253 -76.16601562 143.71386719 C-84.19609509 139.5187417 -92.15412409 135.20052781 -100.0859375 130.82275391 C-109.56409492 125.62708058 -119.19560022 120.73449649 -128.81860352 115.8145752 C-138.4570772 110.88422321 -148.02510985 105.86402365 -157.49609375 100.6171875 C-166.07149252 95.89749434 -174.785468 91.4553572 -183.5 87 C-193.91272213 81.67643283 -204.26530622 76.28494773 -214.49609375 70.6171875 C-223.07149252 65.89749434 -231.785468 61.4553572 -240.5 57 C-250.90027595 51.68279601 -261.24552231 46.30573322 -271.45874023 40.63476562 C-277.23331577 37.45136689 -283.06936673 34.4046871 -288.94140625 31.40625 C-289.73139008 31.00253174 -290.5213739 30.59881348 -291.33529663 30.18286133 C-295.29788648 28.15992389 -299.26444215 26.14524588 -303.23632812 24.140625 C-304.70059159 23.39597245 -306.16478732 22.6511867 -307.62890625 21.90625 C-308.29878067 21.57129517 -308.96865509 21.23634033 -309.65882874 20.89123535 C-313.47161154 18.94425132 -316.75573165 16.79334107 -320 14 C-313.27880522 13.04196821 -306.59904243 12.6730869 -299.81893921 12.38621521 C-297.99815509 12.3053043 -297.99815509 12.3053043 -296.14058745 12.22275883 C-292.78811594 12.07444695 -289.4355419 11.92903359 -286.08289075 11.78487551 C-282.46026845 11.62840137 -278.8378117 11.46817718 -275.21533203 11.30844116 C-268.123821 10.99634305 -261.03216176 10.68774633 -253.9404432 10.38040357 C-248.17220547 10.13035128 -242.40402517 9.87901113 -236.63588333 9.62675667 C-235.81395172 9.59081246 -234.99202011 9.55486826 -234.14518148 9.51783483 C-232.47520786 9.44479853 -230.80523437 9.37175905 -229.13526101 9.29871643 C-213.48044557 8.61414073 -197.82546033 7.93351451 -182.17041309 7.25426287 C-168.75882186 6.67226307 -155.34737707 6.08698358 -141.93603516 5.49926758 C-126.34535902 4.81605015 -110.75459831 4.13481647 -95.16369689 3.45675808 C-93.49813491 3.38431684 -91.83257304 3.31187334 -90.16701126 3.23942757 C-89.34763627 3.20378912 -88.52826128 3.16815067 -87.68405675 3.13143228 C-81.93068356 2.88105826 -76.1773723 2.62929151 -70.42408371 2.37698174 C-63.40093048 2.06902355 -56.37768506 1.76327522 -49.35431592 1.46027952 C-45.7758365 1.30584689 -42.19740491 1.1504753 -38.6190834 0.9924221 C-34.72718448 0.82055244 -30.83508793 0.65346992 -26.94296265 0.48680115 C-25.27306387 0.41195084 -25.27306387 0.41195084 -23.56942976 0.3355884 C-15.70964985 0.00469433 -7.86621249 -0.05162973 0 0 Z " fill="#66B5E0" transform="translate(544,228)"/>
<path d="M0 0 C0.91265625 0.1751564 0.91265625 0.1751564 1.84375 0.35385132 C16.65664797 3.18113388 31.49511625 5.78100984 46.375 8.2265625 C48.06992875 8.50626847 49.76483424 8.78611534 51.4597168 9.06610107 C58.42496011 10.21588799 65.39021314 11.36529692 72.35888672 12.49414062 C76.6905894 13.19621569 81.02021872 13.90999922 85.34869385 14.63169479 C86.98106445 14.90159227 88.61416494 15.16711458 90.24798584 15.42808914 C92.5071682 15.78941182 94.76339397 16.1656036 97.01953125 16.54541016 C98.29932861 16.7546109 99.57912598 16.96381165 100.89770508 17.17935181 C103.97592886 17.99363248 105.16856618 18.46077063 107 21 C107.85620117 23.23876953 107.85620117 23.23876953 108.54296875 25.8828125 C108.80803223 26.8728125 109.0730957 27.8628125 109.34619141 28.8828125 C109.76263916 30.48769531 109.76263916 30.48769531 110.1875 32.125 C112.61855348 41.16100645 115.22888634 50.101905 118.125 59 C121.02148017 67.92159852 123.77479277 76.86485385 126.38037109 85.875 C127.54268983 89.86113958 128.74169205 93.83630451 129.9375 97.8125 C130.18902832 98.64950439 130.44055664 99.48650879 130.69970703 100.34887695 C131.21096044 102.04984672 131.7223543 103.75077428 132.23388672 105.45166016 C133.49119115 109.63386017 134.74542231 113.8169814 136 118 C136.36895386 119.22952393 136.36895386 119.22952393 136.74536133 120.48388672 C138.02178673 124.73752535 139.2970163 128.99151729 140.5703125 133.24609375 C140.82868896 134.10855713 141.08706543 134.97102051 141.35327148 135.85961914 C141.86162329 137.5577168 142.3689728 139.25611489 142.87524414 140.95483398 C143.98288299 144.66140612 145.10533422 148.35977288 146.30078125 152.0390625 C146.67589844 153.20179688 147.05101562 154.36453125 147.4375 155.5625 C147.76621094 156.55378906 148.09492187 157.54507813 148.43359375 158.56640625 C149 161 149 161 148 164 C111.64558663 145.46455002 111.64558663 145.46455002 97.40771484 137.56933594 C88.11598094 132.44979696 78.65695001 127.65860971 69.21188354 122.83032227 C57.26378453 116.71926249 45.42036719 110.45359921 33.69116211 103.92944336 C32.47446387 103.26075992 31.2417704 102.6208852 30 102 C29.12359962 99.82390382 28.35020431 97.60604257 27.625 95.375 C27.29520142 94.36228027 27.29520142 94.36228027 26.95874023 93.32910156 C25.12282064 87.59842396 23.59345326 81.8016034 22.0859375 75.9765625 C20.93323403 71.64473313 19.56505859 67.3896601 18.1875 63.125 C15.43139535 54.5762403 13.00250346 45.95405433 10.6171875 37.29541016 C8.56617426 29.89694962 6.35986309 22.56601477 3.953125 15.27539062 C2.76134895 11.62263071 1.73722468 7.99685083 0.92114258 4.24023438 C0.65978264 3.04352112 0.65978264 3.04352112 0.3931427 1.82263184 C0.26340561 1.22116333 0.13366852 0.61969482 0 0 Z " fill="#FCBA50" transform="translate(460,281)"/>
<path d="M0 0 C0.66 0.33 1.32 0.66 2 1 C-3.52544685 6.61686049 -9.04082118 12.14094542 -15.0390625 17.2578125 C-18.09229171 19.97044244 -20.9140315 22.90600453 -23.78125 25.8125 C-26.40771122 28.40196881 -29.16976458 30.78836964 -31.96875 33.1875 C-35.03974317 35.92777083 -37.88786876 38.87946902 -40.77734375 41.80859375 C-43.4270144 44.42101068 -46.21172803 46.83302621 -49.03515625 49.25390625 C-51.10820324 51.09615675 -53.05435802 53.02401662 -55 55 C-57.55990134 57.59982183 -60.1677954 60.06268398 -62.9375 62.4375 C-65.92801716 65.00665271 -68.73116684 67.69317256 -71.5 70.5 C-74.86114482 73.9071879 -78.33701203 77.07458174 -81.96875 80.1875 C-84.23638572 82.2109288 -86.3657695 84.33653347 -88.5 86.5 C-91.86114482 89.9071879 -95.33701203 93.07458174 -98.96875 96.1875 C-102.03974317 98.92777083 -104.88786876 101.87946902 -107.77734375 104.80859375 C-110.4270144 107.42101068 -113.21172803 109.83302621 -116.03515625 112.25390625 C-118.10820324 114.09615675 -120.05435802 116.02401662 -122 118 C-124.55990134 120.59982183 -127.1677954 123.06268398 -129.9375 125.4375 C-132.92801716 128.00665271 -135.73116684 130.69317256 -138.5 133.5 C-141.86114482 136.9071879 -145.33701203 140.07458174 -148.96875 143.1875 C-152.0301533 145.91921371 -154.8697919 148.86103901 -157.75 151.78125 C-161.03038181 155.01607095 -164.50383678 158.00328867 -168 161 C-168.33 161.33 -168.66 161.66 -169 162 C-170.79665916 162.15318474 -172.59914435 162.23844587 -174.40136719 162.29711914 C-175.5643634 162.33707504 -176.72735962 162.37703094 -177.92559814 162.41819763 C-179.20311951 162.45679398 -180.48064087 162.49539032 -181.796875 162.53515625 C-183.13109244 162.57837388 -184.46530049 162.62188206 -185.79949951 162.66566467 C-189.3771934 162.78131916 -192.95507021 162.88980806 -196.53305054 162.99619293 C-198.73993386 163.06219893 -200.94675275 163.13006981 -203.15356445 163.19842529 C-225.43820247 163.88515947 -247.70402223 164.29721874 -270 164 C-266.64134922 161.22070223 -263.2408884 158.81355163 -259.51171875 156.55859375 C-258.42858398 155.90189697 -257.34544922 155.2452002 -256.22949219 154.56860352 C-255.04890507 153.8581078 -253.86823876 153.14774368 -252.6875 152.4375 C-251.4533419 151.69150454 -250.21929475 150.9453255 -248.98535156 150.19897461 C-238.74505483 144.01436467 -228.45316638 137.916771 -218.1578064 131.82443237 C-210.47902429 127.27951485 -202.82759051 122.70778251 -195.29858398 117.91748047 C-188.06534674 113.35044925 -180.67531745 109.04093193 -173.3125 104.6875 C-164.32322571 99.37229925 -155.35351805 94.03975214 -146.5 88.5 C-137.85144642 83.09029134 -129.0936829 77.87768886 -120.3125 72.6875 C-110.48537704 66.87899712 -100.70333087 61.01383414 -91 55 C-81.39958788 49.0505437 -71.72304658 43.24597396 -62 37.5 C-52.02843121 31.60683195 -42.10336674 25.65165095 -32.25 19.5625 C-30.67895508 18.59292358 -30.67895508 18.59292358 -29.07617188 17.60375977 C-25.04294742 15.11420548 -21.00987961 12.62440197 -16.97851562 10.13183594 C-14.15733585 8.39207741 -11.32974825 6.66327613 -8.5 4.9375 C-7.66243164 4.41808838 -6.82486328 3.89867676 -5.96191406 3.36352539 C-4.82061035 2.67117798 -4.82061035 2.67117798 -3.65625 1.96484375 C-2.66334961 1.35564087 -2.66334961 1.35564087 -1.65039062 0.73413086 C-0.83344727 0.37073608 -0.83344727 0.37073608 0 0 Z " fill="#95D6E9" transform="translate(815,64)"/>
<path d="M0 0 C-2.44019363 2.48314597 -4.66292664 4.59535794 -7.66015625 6.375 C-8.36132568 6.79644287 -9.06249512 7.21788574 -9.78491211 7.65209961 C-10.53651611 8.09690674 -11.28812012 8.54171387 -12.0625 9 C-13.69086486 9.97920486 -15.3184443 10.95971682 -16.9453125 11.94140625 C-18.20069824 12.69768311 -18.20069824 12.69768311 -19.48144531 13.46923828 C-23.49753727 15.91019375 -27.46869123 18.42062407 -31.4375 20.9375 C-32.22753418 21.43789795 -33.01756836 21.9382959 -33.83154297 22.45385742 C-35.43159026 23.46782765 -37.03136315 24.48223102 -38.63085938 25.49707031 C-40.94574031 26.96557887 -43.26161261 28.432504 -45.578125 29.8984375 C-46.33609375 30.37845215 -47.0940625 30.8584668 -47.875 31.35302734 C-49.41677107 32.326075 -50.96105249 33.29515638 -52.5078125 34.26025391 C-57.10186616 37.13247885 -61.62358324 40.08596703 -66.109375 43.125 C-68.21874651 44.52083861 -70.32812146 45.91667201 -72.4375 47.3125 C-73.40776123 47.98966064 -74.37802246 48.66682129 -75.37768555 49.36450195 C-82.72173158 54.16197862 -87.48822616 54.68910437 -96 53 C-97.1351001 52.79616699 -98.2702002 52.59233398 -99.43969727 52.38232422 C-102.06456598 51.89942891 -104.68306533 51.40095287 -107.30175781 50.88720703 C-112.82594306 49.82179632 -118.37625541 48.92548929 -123.9296875 48.02734375 C-125.50547577 47.77194321 -125.50547577 47.77194321 -127.11309814 47.51138306 C-130.36682309 46.98524003 -133.6208581 46.46105764 -136.875 45.9375 C-141.20607972 45.24043097 -145.53674122 44.54083587 -149.8671875 43.83984375 C-150.83719696 43.68458725 -151.80720642 43.52933075 -152.80661011 43.36936951 C-157.21788812 42.655238 -161.60820554 41.89621188 -165.98681641 41.00219727 C-171.41632456 39.89407224 -176.87270283 39.00136605 -182.34375 38.125 C-183.39348999 37.95500488 -184.44322998 37.78500977 -185.52478027 37.60986328 C-188.84957311 37.07148933 -192.17473424 36.53544462 -195.5 36 C-199.8857632 35.29379078 -204.27111995 34.58512889 -208.65625 33.875 C-209.64508179 33.71660645 -210.63391357 33.55821289 -211.65270996 33.39501953 C-216.95175099 32.5366528 -222.21108484 31.56944198 -227.47033691 30.49560547 C-232.07592539 29.59328972 -236.71015235 28.86722129 -241.34375 28.125 C-242.91835999 27.87000732 -242.91835999 27.87000732 -244.52478027 27.60986328 C-247.84957311 27.07148933 -251.17473424 26.53544462 -254.5 26 C-258.8857632 25.29379078 -263.27111995 24.58512889 -267.65625 23.875 C-268.64508179 23.71660645 -269.63391357 23.55821289 -270.65270996 23.39501953 C-276.05363371 22.52014929 -281.41653327 21.53697177 -286.77700806 20.44189453 C-289.62011901 19.87673046 -292.47255305 19.42418764 -295.33984375 19 C-296.42201172 18.835 -297.50417969 18.67 -298.61914062 18.5 C-300.85812056 18.16263751 -303.09772514 17.82939826 -305.33789062 17.5 C-306.41103516 17.335 -307.48417969 17.17 -308.58984375 17 C-309.55784912 16.855625 -310.52585449 16.71125 -311.52319336 16.5625 C-314 16 -314 16 -317 14 C-313.56345508 13.24153364 -310.28402057 12.82736136 -306.76989079 12.67392635 C-305.21083078 12.60301357 -305.21083078 12.60301357 -303.6202746 12.5306682 C-301.91719154 12.45916397 -301.91719154 12.45916397 -300.17970276 12.38621521 C-298.36276355 12.3053043 -298.36276355 12.3053043 -296.5091185 12.22275883 C-293.14988603 12.07396704 -289.79053513 11.92867895 -286.43108761 11.78487551 C-282.806347 11.6288695 -279.18180499 11.46836976 -275.55723572 11.30844116 C-268.4553096 10.99580639 -261.3532069 10.68737363 -254.25103391 10.38040357 C-248.47413113 10.13062495 -242.69729942 9.87925885 -236.92051506 9.62675667 C-236.09817698 9.59081246 -235.2758389 9.55486826 -234.42858149 9.51783483 C-232.75788319 9.44479997 -231.0871851 9.37176049 -229.41648721 9.29871643 C-214.63530401 8.65263138 -199.85395251 8.01047832 -185.07250977 7.37036133 C-170.74846738 6.750052 -156.42457505 6.12640713 -142.10083008 5.49926758 C-126.49589308 4.81603707 -110.89087316 4.13475656 -95.28570789 3.45675808 C-93.61841415 3.38431591 -91.95112046 3.31187241 -90.28382683 3.23942757 C-89.46356688 3.20378912 -88.64330693 3.16815067 -87.79819061 3.13143228 C-82.03734013 2.88101302 -76.2765493 2.62924959 -70.5157795 2.37698174 C-63.48157507 2.06899962 -56.44727741 1.76325527 -49.41285551 1.46027952 C-45.82832151 1.30584138 -42.243835 1.15046935 -38.65945816 0.9924221 C-34.76082979 0.82055416 -30.8620043 0.65346966 -26.96315002 0.48680115 C-25.2901817 0.41195084 -25.2901817 0.41195084 -23.58341604 0.3355884 C-15.71896536 0.00507402 -7.87086743 -0.05167434 0 0 Z " fill="#97D8EB" transform="translate(544,228)"/>
<path d="M0 0 C1.65 0 3.3 0 5 0 C17.18042813 22.41557904 27.9959877 45.55479844 38.97509766 68.57470703 C42.56534935 76.10221858 46.18481293 83.61547803 49.8125 91.125 C50.25301193 92.03696136 50.25301193 92.03696136 50.7024231 92.96734619 C52.50023689 96.68900227 54.29860155 100.41039197 56.09710693 104.13171387 C61.06877387 114.41919612 66.03677606 124.7084414 71 135 C71.56589844 136.17304688 72.13179687 137.34609375 72.71484375 138.5546875 C74.35314505 141.95236549 75.98941015 145.35101606 77.625 148.75 C78.10984863 149.75514648 78.59469727 150.76029297 79.09423828 151.79589844 C87 168.24412752 87 168.24412752 87 171 C77.1 171 67.2 171 57 171 C54.70597505 166.2906687 52.41274009 161.58096734 50.12133789 156.87036133 C49.34507805 155.27509854 48.56839999 153.68003917 47.79125977 152.08520508 C46.66046012 149.7643978 45.53127646 147.44280965 44.40234375 145.12109375 C44.0666185 144.43293076 43.73089325 143.74476776 43.38499451 143.03575134 C39.83568485 135.72881317 36.43687167 128.36472501 33 121 C4.95 121 -23.1 121 -52 121 C-56.5478125 130.3121875 -56.5478125 130.3121875 -61.1875 139.8125 C-62.13391357 141.74843018 -63.08032715 143.68436035 -64.05541992 145.67895508 C-68.15118476 154.06948886 -72.2294206 162.45687765 -76 171 C-77.98 171 -79.96 171 -82 171 C-76.65635086 158.70387123 -70.97502098 146.60846474 -65.05136108 134.58172607 C-62.71493392 129.8377715 -60.38951351 125.08842096 -58.0625 120.33984375 C-57.61182663 119.42092346 -57.16115326 118.50200317 -56.69682312 117.55523682 C-53.4898066 111.01257306 -50.31621367 104.45553136 -47.1875 97.875 C-42.83743261 88.72756424 -38.42475989 79.6114625 -34 70.5 C-29.00349694 60.20976095 -24.0285626 49.9101298 -19.10400391 39.58520508 C-15.21759586 31.44138028 -11.29905066 23.31323346 -7.375 15.1875 C-7.06246277 14.54018921 -6.74992554 13.89287842 -6.42791748 13.22595215 C-1.20933419 2.41866838 -1.20933419 2.41866838 0 0 Z M-10 32 C-13.07570022 38.27161427 -16.14960648 44.54410569 -19.22241211 50.81713867 C-20.26238831 52.93972484 -21.30273764 55.06212824 -22.34350586 57.18432617 C-27.89284597 68.50046964 -33.42349763 79.82557895 -38.88671875 91.18359375 C-39.3139473 92.06676773 -39.74117584 92.94994171 -40.18135071 93.85987854 C-43.68270359 101.16540793 -46.79936913 108.5318613 -50 116 C-23.27 116 3.46 116 31 116 C24.06715824 100.45218571 24.06715824 100.45218571 16.625 85.1875 C10.90125256 73.87705831 5.42964852 62.45394432 0 51 C-0.67119873 49.58557617 -0.67119873 49.58557617 -1.35595703 48.14257812 C-3.9082095 42.76371771 -6.45617826 37.38285242 -9 32 C-9.33 32 -9.66 32 -10 32 Z " fill="#116D9C" transform="translate(1207,273)"/>
<path d="M0 0 C1.65 0 3.3 0 5 0 C17.18042813 22.41557904 27.9959877 45.55479844 38.97509766 68.57470703 C42.56534935 76.10221858 46.18481293 83.61547803 49.8125 91.125 C50.25301193 92.03696136 50.25301193 92.03696136 50.7024231 92.96734619 C52.50023689 96.68900227 54.29860155 100.41039197 56.09710693 104.13171387 C61.06877387 114.41919612 66.03677606 124.7084414 71 135 C71.56589844 136.17304688 72.13179687 137.34609375 72.71484375 138.5546875 C74.35314505 141.95236549 75.98941015 145.35101606 77.625 148.75 C78.10984863 149.75514648 78.59469727 150.76029297 79.09423828 151.79589844 C87 168.24412752 87 168.24412752 87 171 C77.1 171 67.2 171 57 171 C54.70597505 166.2906687 52.41274009 161.58096734 50.12133789 156.87036133 C49.34507805 155.27509854 48.56839999 153.68003917 47.79125977 152.08520508 C46.66046012 149.7643978 45.53127646 147.44280965 44.40234375 145.12109375 C44.0666185 144.43293076 43.73089325 143.74476776 43.38499451 143.03575134 C39.83568485 135.72881317 36.43687167 128.36472501 33 121 C4.95 121 -23.1 121 -52 121 C-56.5478125 130.3121875 -56.5478125 130.3121875 -61.1875 139.8125 C-62.13391357 141.74843018 -63.08032715 143.68436035 -64.05541992 145.67895508 C-68.15118476 154.06948886 -72.2294206 162.45687765 -76 171 C-77.98 171 -79.96 171 -82 171 C-76.65635086 158.70387123 -70.97502098 146.60846474 -65.05136108 134.58172607 C-62.71493392 129.8377715 -60.38951351 125.08842096 -58.0625 120.33984375 C-57.61182663 119.42092346 -57.16115326 118.50200317 -56.69682312 117.55523682 C-53.4898066 111.01257306 -50.31621367 104.45553136 -47.1875 97.875 C-42.83743261 88.72756424 -38.42475989 79.6114625 -34 70.5 C-29.00349694 60.20976095 -24.0285626 49.9101298 -19.10400391 39.58520508 C-15.21759586 31.44138028 -11.29905066 23.31323346 -7.375 15.1875 C-7.06246277 14.54018921 -6.74992554 13.89287842 -6.42791748 13.22595215 C-1.20933419 2.41866838 -1.20933419 2.41866838 0 0 Z M-10 32 C-13.07570022 38.27161427 -16.14960648 44.54410569 -19.22241211 50.81713867 C-20.26238831 52.93972484 -21.30273764 55.06212824 -22.34350586 57.18432617 C-27.89284597 68.50046964 -33.42349763 79.82557895 -38.88671875 91.18359375 C-39.3139473 92.06676773 -39.74117584 92.94994171 -40.18135071 93.85987854 C-43.68270359 101.16540793 -46.79936913 108.5318613 -50 116 C-23.27 116 3.46 116 31 116 C24.06715824 100.45218571 24.06715824 100.45218571 16.625 85.1875 C10.90125256 73.87705831 5.42964852 62.45394432 0 51 C-0.67119873 49.58557617 -0.67119873 49.58557617 -1.35595703 48.14257812 C-3.9082095 42.76371771 -6.45617826 37.38285242 -9 32 C-9.33 32 -9.66 32 -10 32 Z " fill="#116D9C" transform="translate(1014,273)"/>
<path d="M0 0 C9.9 0 19.8 0 30 0 C35.93425734 10.99296851 41.49738135 22.08830659 46.84765625 33.375 C50.1744303 40.38825756 53.56377097 47.37058552 56.95632935 54.35217285 C62.30688352 65.36337209 67.63660595 76.3836549 72.90478516 87.43457031 C75.45792413 92.7866563 78.0263814 98.13102632 80.609375 103.46875 C80.92139862 104.11378479 81.23342224 104.75881958 81.55490112 105.42340088 C83.08255789 108.58096206 84.61167192 111.73780464 86.14306641 114.89355469 C96 135.25564249 96 135.25564249 96 138 C96.66 138 97.32 138 98 138 C98.23920166 137.19941162 98.47840332 136.39882324 98.72485352 135.57397461 C100.30484946 131.14556936 102.31850922 127.02621317 104.40234375 122.81640625 C104.83587158 121.93271866 105.26939941 121.04903107 105.71606445 120.13856506 C106.64126899 118.25354547 107.56814512 116.36934556 108.49655151 114.48590088 C110.91137774 109.58669373 113.31408415 104.68154348 115.71875 99.77734375 C116.18756088 98.82214844 116.65637177 97.86695313 117.13938904 96.8828125 C120.44337241 90.14795739 123.7152155 83.39939418 126.9375 76.625 C130.86999061 68.36242957 134.83142577 60.11425939 138.8125 51.875 C139.10387848 51.27195038 139.39525696 50.66890076 139.69546509 50.0475769 C140.88106412 47.59395839 142.06672552 45.14037006 143.25257874 42.68687439 C145.45872243 38.12191719 147.66156261 33.55537409 149.86328125 28.98828125 C150.81151791 27.02189423 151.75980119 25.05552971 152.70809937 23.08917236 C153.31084727 21.83905978 153.91341209 20.5888589 154.51577759 19.33856201 C157.63268842 12.86932776 160.76647981 6.41183393 164 0 C165.65 0 167.3 0 169 0 C166.92331209 6.94937909 164.07415609 13.30612707 160.84375 19.7890625 C160.34137817 20.80938568 159.83900635 21.82970886 159.32141113 22.88095093 C157.71965918 26.13165805 156.11019472 29.37846788 154.5 32.625 C152.40404665 36.86610141 150.31117361 41.10871872 148.21875 45.3515625 C147.70018936 46.40187653 147.18162872 47.45219055 146.64735413 48.53433228 C141.73805238 58.49403708 136.94897705 68.50954737 132.17572021 78.53497314 C129.49332325 84.15891366 126.77610044 89.76606636 124.0625 95.375 C122.86287505 97.85657466 121.66373493 100.33838326 120.46484375 102.8203125 C120.17033325 103.42999878 119.87582275 104.03968506 119.5723877 104.66784668 C116.26846088 111.51054614 112.98629999 118.36365678 109.70410156 125.21679688 C106.73104128 131.41644955 103.73754996 137.60586298 100.73046875 143.7890625 C100.18144897 144.91858337 100.18144897 144.91858337 99.62133789 146.07092285 C97.80542022 149.80657635 95.98756495 153.54126515 94.16650391 157.27441406 C93.5028556 158.63863584 92.83927795 160.00289199 92.17578125 161.3671875 C91.86908005 161.99412506 91.56237885 162.62106262 91.24638367 163.26699829 C90.00417477 165.82523482 88.90083789 168.29748633 88 171 C86.02 171 84.04 171 82 171 C75.68825715 158.48456363 69.44726856 145.9421236 63.4284668 133.28295898 C59.32953061 124.66715302 55.16865134 116.08221003 51 107.5 C45.99366906 97.19013005 41.01027677 86.87021758 36.07543945 76.52587891 C32.76041883 69.58041477 29.42350934 62.64566155 26.07641602 55.71560669 C25.19187429 53.88405749 24.30782104 52.05227312 23.42382812 50.22045898 C20.65885637 44.49274577 17.88896285 38.76751643 15.10523987 33.04888916 C13.83235485 30.4331308 12.56201781 27.81613887 11.29190063 25.19903564 C10.69061578 23.9618838 10.08809873 22.7253299 9.48422241 21.48944092 C8.63996466 19.76142936 7.80038721 18.03113361 6.9609375 16.30078125 C6.24623291 14.83378784 6.24623291 14.83378784 5.51708984 13.3371582 C3.52603517 8.95741467 1.78678876 4.46697191 0 0 Z " fill="#116D9C" transform="translate(784,273)"/>
</svg>
